<?xml version="1.0" standalone="no"?>
<!DOCTYPE svg PUBLIC "-//W3C//DTD SVG 20010904//EN"
 "http://www.w3.org/TR/2001/REC-SVG-20010904/DTD/svg10.dtd">
<svg version="1.0" xmlns="http://www.w3.org/2000/svg"
 width="500.000000pt" height="500.000000pt" viewBox="0 0 500.000000 500.000000"
 preserveAspectRatio="xMidYMid meet">
<metadata>
Created by potrace 1.11, written by Peter Selinger 2001-2013
</metadata>
<g transform="translate(0.000000,500.000000) scale(0.100000,-0.100000)"
fill="#000000" stroke="none">
<path d="M2311 2938 l-173 -130 -28 27 -28 27 -128 -98 -127 -99 41 -3 41 -3
3 -123 3 -123 -87 -43 c-48 -24 -87 -45 -85 -46 1 -2 44 10 95 26 415 130 884
132 1310 4 45 -14 90 -27 100 -30 9 -3 -27 18 -80 46 l-98 50 0 120 0 119 47
3 47 3 -133 98 -133 98 -28 -26 -28 -27 -176 131 c-97 72 -177 131 -179 130
-1 0 -80 -59 -176 -131z m-91 -313 c0 -104 -2 -125 -15 -125 -12 0 -15 19 -15
115 l0 115 -54 0 c-30 0 -58 5 -61 10 -4 6 22 10 69 10 l76 0 0 -125z m695
115 c-3 -5 -31 -10 -61 -10 l-54 0 0 -115 c0 -96 -3 -115 -15 -115 -13 0 -15
21 -15 125 l0 125 76 0 c47 0 73 -4 69 -10z m-315 -165 l0 -45 -105 0 -105 0
0 45 0 45 105 0 105 0 0 -45z m-450 -50 c0 -33 -2 -35 -57 -51 -32 -9 -61 -18
-65 -21 -5 -2 -8 21 -8 51 l0 56 65 0 65 0 0 -35z m820 -16 c0 -51 0 -51 -27
-45 -105 26 -103 24 -103 61 l0 35 65 0 65 0 0 -51z"/>
<path d="M1940 2255 c0 -60 3 -75 15 -75 10 0 15 10 15 28 l1 27 22 -27 c13
-16 33 -28 45 -28 l23 0 -22 29 c-20 28 -21 31 -5 46 11 11 14 25 10 39 -9 28
-22 36 -66 36 l-38 0 0 -75z m58 28 c-4 -22 -22 -20 -26 1 -2 10 3 16 13 16
10 0 15 -7 13 -17z"/>
<path d="M2091 2304 c-12 -15 -21 -37 -21 -49 0 -38 37 -75 75 -75 49 0 66 9
80 43 15 36 3 82 -25 97 -36 20 -87 12 -109 -16z m80 -14 c39 -22 12 -87 -31
-72 -32 11 -39 42 -14 66 18 19 20 19 45 6z"/>
<path d="M2287 2318 c-40 -31 -36 -115 8 -132 39 -15 83 -6 104 20 43 54 10
124 -58 124 -20 0 -45 -6 -54 -12z m77 -34 c35 -35 -2 -85 -46 -62 -33 17 -15
76 24 78 4 0 14 -7 22 -16z"/>
<path d="M2450 2255 c0 -58 3 -75 14 -75 9 0 16 12 18 28 2 19 9 28 26 30 12
2 22 10 22 17 0 7 -10 15 -22 17 -28 4 -27 22 2 26 39 6 23 32 -20 32 l-40 0
0 -75z"/>
<path d="M2560 2255 c0 -60 3 -75 15 -75 12 0 15 15 15 75 0 60 -3 75 -15 75
-12 0 -15 -15 -15 -75z"/>
<path d="M2630 2255 c0 -60 3 -75 15 -75 11 0 15 11 15 40 0 22 4 40 8 40 5 0
21 -18 38 -40 18 -25 37 -40 52 -40 21 0 22 4 22 75 0 68 -2 75 -20 75 -17 0
-20 -7 -20 -40 0 -22 -3 -40 -7 -40 -5 0 -21 18 -36 40 -16 23 -36 40 -48 40
-17 0 -19 -8 -19 -75z"/>
<path d="M2827 2313 c-27 -31 -26 -84 3 -113 41 -41 130 -14 130 40 0 17 -7
20 -40 20 -41 0 -52 -12 -24 -28 22 -12 1 -26 -26 -17 -15 5 -20 15 -20 41 0
39 21 54 51 36 19 -12 49 -6 49 9 0 30 -98 39 -123 12z"/>
<path d="M2060 2099 c0 -9 -2 -32 -5 -50 -5 -32 -5 -32 6 -9 l11 25 11 -23 11
-23 12 28 12 28 1 -27 c1 -16 6 -28 12 -28 6 0 8 7 5 16 -3 9 -6 27 -6 40 0
33 -16 30 -25 -3 l-7 -28 -18 35 c-11 19 -19 28 -20 19z"/>
<path d="M2150 2065 c0 -43 1 -45 28 -44 16 1 20 3 10 6 -22 5 -24 33 -3 33 8
0 15 5 15 10 0 6 -7 10 -15 10 -21 0 -19 18 3 23 10 3 6 5 -10 6 -27 1 -28 -1
-28 -44z"/>
<path d="M2222 2065 c1 -40 2 -43 5 -15 l5 35 29 -35 28 -35 -1 50 c-1 45 -1
47 -7 15 l-6 -35 -27 35 -28 35 2 -50z"/>
<path d="M2310 2065 c0 -37 3 -45 18 -45 24 0 42 19 42 45 0 26 -18 45 -42 45
-15 0 -18 -8 -18 -45z m34 29 c19 -7 21 -35 4 -52 -20 -20 -28 -14 -28 23 0
38 0 38 24 29z"/>
<path d="M2400 2096 c-28 -35 11 -93 48 -70 35 22 22 84 -18 84 -10 0 -23 -7
-30 -14z m54 -18 c16 -26 -16 -57 -38 -38 -17 13 -21 42 -9 54 11 11 35 3 47
-16z"/>
<path d="M2503 2103 c20 -5 21 -10 2 -43 -20 -35 -19 -40 13 -39 16 1 20 3 10
6 -21 5 -22 10 -3 43 20 35 19 40 -12 39 -17 -1 -21 -3 -10 -6z"/>
<path d="M2671 2063 c1 -27 3 -40 6 -30 2 9 7 17 10 17 3 0 12 -8 19 -17 7
-10 14 -13 14 -6 0 6 -5 15 -10 18 -8 5 -7 11 1 21 16 19 4 44 -21 44 -17 0
-20 -6 -19 -47z m30 14 c-13 -13 -26 -3 -16 12 3 6 11 8 17 5 6 -4 6 -10 -1
-17z"/>
<path d="M2745 2094 c-16 -17 -12 -53 9 -66 30 -20 66 0 66 37 0 42 -44 59
-75 29z m59 -16 c13 -22 -14 -54 -38 -45 -16 6 -22 48 -9 61 11 11 35 3 47
-16z"/>
<path d="M2840 2094 c-21 -24 -1 -68 33 -72 20 -3 29 2 38 21 23 50 -37 93
-71 51z m55 -29 c0 -37 -28 -46 -45 -15 -9 16 -8 25 1 36 20 24 44 13 44 -21z"/>
<path d="M2930 2065 c0 -25 5 -45 10 -45 6 0 10 9 10 19 0 11 6 22 13 25 10 5
10 7 0 12 -18 8 -16 22 5 27 10 3 6 5 -10 6 -27 1 -28 -1 -28 -44z"/>
<path d="M2993 2065 c0 -27 2 -38 4 -22 2 15 2 37 0 50 -2 12 -4 0 -4 -28z"/>
<path d="M3022 2064 c1 -38 2 -42 5 -15 l4 34 35 -34 34 -33 0 47 c0 26 -4 47
-10 47 -5 0 -10 -12 -10 -27 l0 -27 -30 29 -30 29 2 -50z"/>
<path d="M3120 2094 c-10 -11 -11 -23 -4 -42 11 -30 38 -40 59 -22 20 16 19
40 0 40 -9 0 -15 -7 -13 -16 5 -25 -19 -28 -32 -4 -16 29 5 54 38 45 15 -4 21
-2 17 5 -9 15 -51 12 -65 -6z"/>
<path d="M2567 2065 c-20 -42 -22 -54 -5 -37 15 15 48 16 48 2 0 -5 4 -10 9
-10 5 0 2 18 -6 40 -9 22 -19 40 -23 40 -3 0 -14 -16 -23 -35z m28 5 c3 -5 1
-10 -4 -10 -6 0 -11 5 -11 10 0 6 2 10 4 10 3 0 8 -4 11 -10z"/>
</g>
</svg>
