<svg xmlns="http://www.w3.org/2000/svg" viewBox="0 0 179 121"><defs><style>.a{fill:rgba(255,255,255,0.99);}.b,.c{fill:#937878;}.b{font-size:20px;font-family:Futura-Bold, Futura;font-weight:700;}.c{font-size:11px;font-family:Futura-Medium, Futura;font-weight:500;}.d{fill:rgba(126,94,94,0.84);}.e{fill:#1a68b5;}</style></defs><g transform="translate(224.349 -41)"><rect class="a" width="179" height="121" transform="translate(-224.349 41)"/><g transform="translate(-212.301 43.825)"><g transform="translate(19.856 67.805)"><text class="b" transform="translate(0.095 21.371)"><tspan x="0" y="0">ROOFING</tspan></text><text class="c" transform="translate(12.095 37.371)"><tspan x="0" y="0">MENDOZA ROOFING </tspan></text></g><g transform="translate(0 0)"><path class="d" d="M300.678,72.75l-6,5-35-26-35,26-6-5-26,20h9v24l11-3v-11h13v9c.072-.008-.072-1,0-1h3c.072-.017.93.008,1,0v-25h-10l-3-2h16v27c5.773-.673,11.2-1.77,17-2v-12h21v12c5.813.289,11.228,1.259,17,2v-27h16l-3,2h-10v25c1.374.2,2.625.77,4,1v-9h13v11l10,3v-24h10Z" transform="translate(-182.727 -51.575)"/><path class="d" d="M335.678,130.269c.512.439-31.431-22.168-78-22-46.569-.168-78.512,22.439-78,22-.035.168,34.6-14.425,78-14C301.076,115.844,335.714,130.437,335.678,130.269Z" transform="translate(-179.727 -54.094)"/></g></g><path class="e" d="M163.334,257.32Z" transform="translate(-217.683 -124.32)"/></g></svg>